HIERARCHY
ROOT Pelvis
{
	OFFSET 0.000000 0.000000 0.000000
	CHANNELS 6 Xposition Yposition Zposition Xrotation Yrotation Zrotation
	JOINT LeftUpLeg_virtual
	{
		OFFSET 0.000000 0.000000 0.000000
		CHANNELS 3 Xrotation Yrotation Zrotation
		JOINT LeftUpLeg
		{
			OFFSET 18.735201 -5.666702 -4.541200
			CHANNELS 3 Xrotation Yrotation Zrotation
			JOINT LeftLeg
			{
				OFFSET -0.021200 -31.938179 0.493100
				CHANNELS 3 Xrotation Yrotation Zrotation
				JOINT LeftFoot
				{
					OFFSET 0.021200 -31.938179 -4.336299
					CHANNELS 3 Xrotation Yrotation Zrotation
					JOINT LeftToeBase
					{
						OFFSET 0.943001 -26.722000 15.023500
						CHANNELS 3 Xrotation Yrotation Zrotation
						End Site
						{
							OFFSET 0 0 0
						}
					}
				}
			}
		}
	}
	JOINT RightUpLeg_virtual
	{
		OFFSET 0.000000 0.000000 0.000000
		CHANNELS 3 Xrotation Yrotation Zrotation
		JOINT RightUpLeg
		{
			OFFSET -18.735201 -5.666702 -4.541200
			CHANNELS 3 Xrotation Yrotation Zrotation
			JOINT RightLeg
			{
				OFFSET 0.018946 -31.938133 0.493100
				CHANNELS 3 Xrotation Yrotation Zrotation
				JOINT RightFoot
				{
					OFFSET -0.018946 -31.938126 -4.336299
					CHANNELS 3 Xrotation Yrotation Zrotation
					JOINT RightToeBase
					{
						OFFSET -0.943001 -26.722004 15.023500
						CHANNELS 3 Xrotation Yrotation Zrotation
						End Site
						{
							OFFSET 0 0 0
						}
					}
				}
			}
		}
	}
	JOINT Hips_virtual
	{
		OFFSET 0.000000 0.000000 0.000000
		CHANNELS 3 Xrotation Yrotation Zrotation
		JOINT Hips
		{
			OFFSET -0.000000 -0.000000 -0.000000
			CHANNELS 3 Xrotation Yrotation Zrotation
			JOINT Spine
			{
				OFFSET 0.000000 10.199997 -0.299500
				CHANNELS 3 Xrotation Yrotation Zrotation
				JOINT Spine1
				{
					OFFSET 0.000000 11.900002 -1.516600
					CHANNELS 3 Xrotation Yrotation Zrotation
					JOINT Spine2
					{
						OFFSET 0.000000 13.600006 -2.842500
						CHANNELS 3 Xrotation Yrotation Zrotation
						JOINT Neck_virtual
						{
							OFFSET 0.000000 0.000000 0.000000
							CHANNELS 3 Xrotation Yrotation Zrotation
							JOINT Neck
							{
								OFFSET 0.000000 9.624100 -2.890100
								CHANNELS 3 Xrotation Yrotation Zrotation
								JOINT Head
								{
									OFFSET 0.000000 14.068802 -1.351900
									CHANNELS 3 Xrotation Yrotation Zrotation
									End Site
									{
										OFFSET 0 0 0
									}
								}
							}
						}
						JOINT LeftShoulder_virtual
						{
							OFFSET 0.000000 0.000000 0.000000
							CHANNELS 3 Xrotation Yrotation Zrotation
							JOINT LeftShoulder
							{
								OFFSET 15.263000 10.923401 -0.547700
								CHANNELS 3 Xrotation Yrotation Zrotation
								JOINT LeftArm
								{
									OFFSET 25.438599 -2.830597 -13.032500
									CHANNELS 3 Xrotation Yrotation Zrotation
									JOINT LeftForeArm
									{
										OFFSET 29.960503 0.000000 0.000000
										CHANNELS 3 Xrotation Yrotation Zrotation
										JOINT LeftHand
										{
											OFFSET 27.849251 0.000000 0.000000
											CHANNELS 3 Xrotation Yrotation Zrotation
											End Site
											{
												OFFSET 0 0 0
											}
										}
									}
								}
							}
						}
						JOINT RightShoulder_virtual
						{
							OFFSET 0.000000 0.000000 0.000000
							CHANNELS 3 Xrotation Yrotation Zrotation
							JOINT RightShoulder
							{
								OFFSET -15.263000 10.923401 -0.547700
								CHANNELS 3 Xrotation Yrotation Zrotation
								JOINT RightArm
								{
									OFFSET -25.438599 -2.830597 -13.032500
									CHANNELS 3 Xrotation Yrotation Zrotation
									JOINT RightForeArm
									{
										OFFSET -29.960503 0.000000 0.000000
										CHANNELS 3 Xrotation Yrotation Zrotation
										JOINT RightHand
										{
											OFFSET -27.849251 0.000000 0.000000
											CHANNELS 3 Xrotation Yrotation Zrotation
											End Site
											{
												OFFSET 0 0 0
											}
										}
									}
								}
							}
						}
					}
				}
			}
		}
	}
}
MOTION
Frames: 13
Frame Time: 0.03333333
10.076392 93.667717 17.530302 0.000000 0.000000 0.000000 -1.316622 5.925184 -5.716656 2.370139 10.554480 10.210884 22.050345 -7.215192 -0.266649 -24.455964 2.493875 -1.426969 0.000000 0.000000 0.000000 -1.316622 5.925184 -5.716656 -35.916826 -6.341957 -3.738051 34.225880 0.620710 1.281806 1.695748 0.506641 8.623052 0.000000 0.000000 0.000000 -1.316622 5.925184 -5.716656 0.000000 0.000000 0.000000 10.003667 -1.258758 3.120563 1.871314 -1.420407 1.481033 0.000000 0.000000 0.000000 -3.085457 -1.618651 0.047468 -0.474011 -0.462178 1.293996 0.000000 0.000000 0.000000 -3.085457 -1.618651 0.047468 1.744052 -3.421884 -0.743977 -7.039698 -12.744837 -76.200008 9.887313 -11.719667 -4.534070 0.000000 0.000000 0.000000 -3.085457 -1.618651 0.047468 2.245581 4.208255 6.197044 0.519965 4.376573 72.028825 11.172627 15.288352 2.172151 0.000000 0.000000 0.000000 
10.055761 93.445366 18.426527 0.000000 0.000000 0.000000 -1.188720 6.004609 -5.774320 3.209668 10.477111 10.320394 21.736951 -7.134511 -0.270738 -25.101014 2.586103 -1.613969 0.000000 0.000000 0.000000 -1.188720 6.004609 -5.774320 -34.921439 -6.580900 -3.390561 29.806614 1.651769 1.277423 0.765295 0.433414 8.549639 0.000000 0.000000 0.000000 -1.188720 6.004609 -5.774320 0.000000 0.000000 0.000000 10.191690 -1.330303 2.931414 1.658269 -1.547289 1.654123 0.000000 0.000000 0.000000 -3.099210 -1.728067 0.284328 -0.510416 -0.447379 1.244473 0.000000 0.000000 0.000000 -3.099210 -1.728067 0.284328 1.747731 -3.049442 -1.011632 -6.924671 -13.420953 -75.877842 9.745419 -12.188615 -4.775194 0.000000 0.000000 0.000000 -3.099210 -1.728067 0.284328 2.286457 4.046475 5.957243 0.577119 4.140637 72.193563 11.311823 15.036757 2.556820 0.000000 0.000000 0.000000 
10.014088 93.224365 19.340965 0.000000 0.000000 0.000000 -1.044973 6.135870 -5.779642 4.141291 10.368681 10.388581 21.206849 -7.032682 -0.285435 -25.624981 2.659288 -1.837392 0.000000 0.000000 0.000000 -1.044973 6.135870 -5.779642 -33.822465 -6.849397 -3.018654 25.410339 2.625625 1.309282 -0.053241 0.516802 7.895501 0.000000 0.000000 0.000000 -1.044973 6.135870 -5.779642 0.000000 0.000000 -0.000001 10.278820 -1.421853 2.776388 1.530882 -1.655979 1.713172 0.000000 0.000000 0.000000 -3.029681 -1.822409 0.405165 -0.575455 -0.448377 1.241437 0.000000 0.000000 0.000000 -3.029681 -1.822409 0.405165 1.734722 -2.975680 -1.007657 -6.950068 -13.745414 -75.686863 9.739467 -12.702278 -4.881131 0.000000 0.000000 0.000000 -3.029681 -1.822409 0.405165 2.341272 3.697851 6.000389 0.577673 4.244795 72.228472 11.271327 14.839597 2.930558 0.000000 0.000000 0.000000 
9.963886 93.000381 20.285587 0.000000 0.000000 0.000000 -0.842810 6.311048 -5.774376 4.767233 10.239610 10.542768 21.027207 -7.110142 -0.363242 -26.080936 2.786435 -1.977204 0.000000 0.000000 0.000000 -0.842810 6.311048 -5.774376 -32.786861 -7.079134 -2.913303 21.335650 2.883538 1.594700 -0.756430 0.878116 7.352084 0.000000 0.000000 0.000000 -0.842810 6.311048 -5.774376 0.000000 0.000000 0.000000 10.401523 -1.519954 2.533763 1.273627 -1.788264 1.884379 0.000000 0.000000 0.000000 -3.086572 -1.937610 0.641754 -0.593880 -0.441784 1.184712 0.000000 0.000000 0.000000 -3.086572 -1.937610 0.641754 1.738330 -2.704592 -1.152258 -6.991229 -14.055431 -75.556427 10.158547 -13.161974 -4.994909 0.000000 0.000000 0.000000 -3.086572 -1.937610 0.641754 2.373052 3.408513 5.817492 0.773667 4.237541 72.357398 11.267696 14.704967 3.217598 0.000000 0.000000 0.000000 
9.884462 92.778275 21.296379 0.000000 0.000000 0.000000 -0.722845 6.486725 -5.700454 5.509223 10.143932 10.682521 20.813789 -7.233751 -0.455544 -26.418916 2.924657 -2.138122 0.000000 0.000000 0.000000 -0.722845 6.486725 -5.700454 -31.860886 -7.290738 -2.733961 17.745887 3.017323 1.602937 -1.607119 1.294834 6.904106 0.000000 0.000000 0.000000 -0.722845 6.486725 -5.700454 0.000000 0.000000 0.000000 10.738851 -1.613895 2.277990 0.862137 -1.917848 2.026344 0.000000 0.000000 0.000000 -3.297927 -2.045511 0.855363 -0.541786 -0.431641 1.095863 0.000000 0.000000 0.000000 -3.297927 -2.045511 0.855363 1.733735 -2.483402 -1.370492 -6.732596 -14.418225 -75.287843 10.256394 -13.631155 -5.186327 0.000000 0.000000 0.000000 -3.297927 -2.045511 0.855363 2.386605 3.103078 5.622620 1.342292 4.454614 72.514684 10.835919 14.812587 3.464561 0.000000 0.000000 0.000000 
9.791052 92.552277 22.322813 0.000000 0.000000 0.000000 -0.619252 6.679712 -5.572599 6.250058 10.103733 10.794832 20.588775 -7.342156 -0.517646 -26.665822 2.982539 -2.361348 0.000000 0.000000 0.000000 -0.619252 6.679712 -5.572599 -31.087247 -7.511649 -2.412385 14.791545 3.517100 1.231518 -2.754922 1.270085 6.557231 0.000000 0.000000 0.000000 -0.619252 6.679712 -5.572599 0.000000 0.000000 0.000000 10.982268 -1.738590 1.906970 0.541255 -2.089058 2.272764 0.000000 0.000000 0.000000 -3.414283 -2.193488 1.172488 -0.504586 -0.396732 0.969416 0.000000 0.000000 0.000000 -3.414283 -2.193488 1.172488 1.735614 -2.164657 -1.839521 -6.563239 -14.805564 -74.882854 10.370140 -14.102612 -5.381991 0.000000 0.000000 0.000000 -3.414283 -2.193488 1.172488 2.409350 3.136677 5.163602 1.807140 4.591963 72.825902 10.057044 14.860557 3.733476 0.000000 0.000000 0.000000 
9.699973 92.318832 23.348814 0.000000 0.000000 0.000000 -0.477926 6.931022 -5.453272 6.961343 9.984511 10.904079 20.349405 -7.410321 -0.590447 -26.892480 3.126339 -2.578060 0.000000 0.000000 0.000000 -0.477926 6.931022 -5.453272 -30.808302 -7.773408 -2.123824 13.190140 3.897548 0.864613 -4.290902 1.030193 5.754402 0.000000 0.000000 0.000000 -0.477926 6.931022 -5.453272 0.000000 -0.000001 0.000000 11.191715 -1.860860 1.736652 0.235685 -2.232094 2.351253 0.000000 0.000000 0.000000 -3.522573 -2.316607 1.321168 -0.481997 -0.387991 0.921762 0.000000 0.000000 0.000000 -3.522573 -2.316607 1.321168 1.744293 -1.890688 -2.064281 -6.496885 -15.195417 -74.597332 10.432930 -14.507989 -5.620994 0.000000 0.000000 0.000000 -3.522573 -2.316607 1.321168 2.430738 3.001840 5.025310 2.288175 4.957961 72.956761 9.695923 15.072117 3.859021 0.000000 0.000000 0.000000 
9.594995 92.077713 24.448484 0.000000 0.000000 0.000000 -0.275751 7.235962 -5.335626 7.633536 9.800072 11.031176 20.109815 -7.331400 -0.627912 -27.046463 3.205871 -2.911804 0.000000 0.000000 0.000000 -0.275751 7.235962 -5.335626 -30.735383 -8.047995 -2.043820 11.567066 4.041811 0.637192 -4.773414 0.847726 5.338136 0.000000 0.000000 0.000000 -0.275751 7.235962 -5.335626 0.000000 0.000000 0.000000 11.295621 -1.997811 1.534706 -0.044869 -2.406050 2.502044 0.000000 0.000000 0.000000 -3.604040 -2.469169 1.541840 -0.469077 -0.367820 0.830374 0.000000 0.000000 0.000000 -3.604040 -2.469169 1.541840 1.759890 -1.531658 -2.493825 -6.427008 -15.650728 -74.236752 10.070176 -14.840263 -5.963079 0.000000 0.000000 0.000000 -3.604040 -2.469169 1.541840 2.453456 2.987846 4.702278 2.724461 5.275612 73.191037 9.351116 15.318229 3.942425 0.000000 0.000000 0.000000 
9.481892 91.835403 25.557137 0.000000 0.000000 0.000000 -0.152922 7.531440 -5.200988 8.424134 9.723838 11.172572 19.782593 -7.262398 -0.660582 -27.147077 3.241860 -3.288543 0.000000 0.000000 0.000000 -0.152922 7.531440 -5.200988 -30.699484 -8.274628 -2.118433 10.391708 4.014582 0.547358 -5.227621 0.681356 5.177025 0.000000 0.000000 0.000000 -0.152922 7.531440 -5.200988 0.000000 0.000000 0.000000 11.463626 -2.100472 1.534706 -0.267883 -2.505730 2.438230 0.000000 0.000000 0.000000 -3.639364 -2.552968 1.545706 -0.519129 -0.372709 0.833258 0.000000 0.000000 0.000000 -3.639364 -2.552968 1.545706 1.771419 -1.312999 -2.562466 -6.915107 -15.688077 -74.148595 10.629447 -15.033028 -6.181485 0.000000 0.000000 0.000000 -3.639364 -2.552968 1.545706 2.484943 2.727735 4.797701 2.953612 5.669618 73.191406 8.978888 15.443459 4.100306 0.000000 0.000000 0.000000 
9.342574 91.535202 26.666456 0.000000 0.000000 0.000000 -0.068531 7.793804 -5.077857 9.372279 9.665956 11.346339 19.348287 -7.380834 -0.745639 -27.399331 3.478028 -3.557853 0.000000 0.000000 0.000000 -0.068531 7.793804 -5.077857 -30.946692 -8.476377 -2.124469 10.048020 4.201764 0.415110 -5.795212 0.434025 4.829568 0.000000 0.000000 0.000000 -0.068531 7.793804 -5.077857 0.000000 0.000001 -0.000001 11.705064 -2.199617 1.306621 -0.493456 -2.664209 2.659173 0.000000 0.000000 0.000000 -3.667251 -2.682968 1.838133 -0.547367 -0.349049 0.727726 0.000000 0.000000 0.000000 -3.667251 -2.682968 1.838133 1.787196 -0.992729 -3.194966 -7.236025 -15.791000 -73.806287 11.051731 -15.314146 -6.357296 0.000000 0.000000 0.000000 -3.667251 -2.682968 1.838133 2.499416 2.747284 4.430862 2.975440 5.659996 73.373539 8.733163 15.548979 4.201226 0.000000 0.000000 0.000000 
9.191511 91.259239 27.843372 0.000000 0.000000 0.000000 -0.049191 7.981856 -4.930251 10.549250 9.667783 11.389778 18.666460 -8.572348 -0.801427 -27.500725 4.708101 -3.290750 0.000000 0.000000 0.000000 -0.049191 7.981856 -4.930251 -31.421725 -8.576576 -2.235424 10.282323 4.253057 0.488553 -5.746565 0.438311 4.352578 0.000000 0.000000 0.000000 -0.049191 7.981856 -4.930251 0.000000 0.000000 0.000000 11.997232 -2.262446 1.323250 -0.697593 -2.737816 2.600813 0.000000 0.000000 0.000000 -3.688903 -2.736438 1.848267 -0.645097 -0.335233 0.741894 0.000000 0.000000 0.000000 -3.688903 -2.736438 1.848267 1.797103 -0.815835 -3.374227 -7.440935 -15.961824 -73.641037 11.242129 -15.683031 -6.492488 0.000000 0.000000 0.000000 -3.688903 -2.736438 1.848267 2.535504 2.578136 4.509841 2.885989 5.757746 73.375616 8.576643 15.662382 4.279692 0.000000 0.000000 0.000000 
9.002054 91.016129 29.059460 0.000000 0.000000 0.000000 -0.012866 8.123010 -4.812356 11.332728 9.566517 11.610551 18.576334 -8.637854 -0.836408 -27.410458 5.048679 -3.651636 0.000000 0.000000 0.000000 -0.012866 8.123010 -4.812356 -32.352659 -8.629058 -2.407216 11.591581 4.209307 0.650021 -5.460265 0.514978 3.939491 0.000000 0.000000 0.000000 -0.012866 8.123010 -4.812356 0.000000 0.000000 0.000000 12.198334 -2.272218 1.611348 -0.867479 -2.693857 2.244016 0.000000 0.000000 0.000000 -3.694629 -2.691001 1.551722 -0.713392 -0.386648 0.889623 0.000000 0.000000 0.000000 -3.694629 -2.691001 1.551722 1.781929 -0.924626 -2.882378 -7.785198 -15.913347 -73.847862 11.753775 -16.045521 -6.531655 0.000000 0.000000 0.000000 -3.694629 -2.691001 1.551722 2.545890 2.185642 5.357589 2.917514 6.091530 72.906819 8.518543 15.828994 4.340205 0.000000 0.000000 0.000000 
8.784798 90.751587 30.322002 0.000000 0.000000 0.000000 0.034181 8.227507 -4.679267 12.199340 9.607123 11.843717 18.329439 -8.752936 -0.869257 -27.242614 5.375786 -4.071572 0.000000 0.000000 0.000000 0.034181 8.227507 -4.679267 -33.770511 -8.613382 -2.646970 14.327502 4.068745 0.835258 -5.848741 0.704619 3.471374 0.000000 0.000000 0.000000 0.034181 8.227507 -4.679267 0.000000 0.000000 0.000000 12.367219 -2.291400 1.789003 -1.060286 -2.678121 1.991261 0.000000 0.000000 0.000000 -3.720848 -2.671221 1.359483 -0.788543 -0.408659 0.995812 0.000000 0.000000 0.000000 -3.720848 -2.671221 1.359483 1.768131 -0.999048 -2.674480 -7.807279 -15.922655 -73.792954 11.902954 -16.455647 -6.599651 0.000000 0.000000 0.000000 -3.720848 -2.671221 1.359483 2.575990 1.858236 5.930297 3.132313 6.965188 72.543323 8.164165 16.111892 4.419307 0.000000 0.000000 0.000000 
